<svg width="16" height="24" viewBox="0 0 16 24" fill="none" xmlns="http://www.w3.org/2000/svg">
<g clip-path="url(#clip0_192_2498)">
<path fill-rule="evenodd" clip-rule="evenodd" d="M1.38115 2.29947H4.45131V1.8279C4.45131 1.70612 4.46348 1.58621 4.48599 1.47251C4.5085 1.35446 4.54257 1.23889 4.58699 1.12954C4.6314 1.01957 4.68799 0.91457 4.75309 0.81516C4.81758 0.718235 4.8906 0.626903 4.97152 0.542404L4.97578 0.536191C5.05852 0.451693 5.14979 0.377136 5.24896 0.308792C5.34388 0.242311 5.44975 0.187015 5.55683 0.139174C5.66392 0.093818 5.77769 0.0584032 5.8933 0.0354147C6.00464 0.0124262 6.12207 0 6.24193 0H9.76111C9.88037 0 9.99597 0.0124262 10.1097 0.0354147C10.2253 0.0584032 10.3367 0.0931966 10.4438 0.139174C10.5533 0.186393 10.6567 0.242311 10.7535 0.308792C10.8526 0.377136 10.9439 0.451693 11.0248 0.536191L11.0309 0.542404C11.1118 0.627524 11.1848 0.718235 11.2493 0.81516C11.3144 0.91457 11.3692 1.02019 11.4154 1.12954C11.4599 1.23889 11.4945 1.35508 11.5164 1.47251C11.539 1.58621 11.5511 1.70612 11.5511 1.8279V2.29947H14.6207C15.38 2.29947 16 2.93445 16 3.70985V5.11836H0V3.70985C0 2.93445 0.62182 2.29947 1.38115 2.29947ZM5.38221 2.29947H10.6172V1.8279C10.6172 1.77011 10.6111 1.71233 10.6008 1.65641C10.5904 1.6005 10.5746 1.54706 10.5521 1.4955C10.532 1.44144 10.5034 1.38987 10.473 1.34452C10.4407 1.29481 10.4061 1.25132 10.3659 1.21031C10.3251 1.16869 10.2807 1.13141 10.2339 1.10096C10.1876 1.06803 10.139 1.0407 10.086 1.02019C10.0355 0.997204 9.98258 0.98105 9.926 0.970488C9.87367 0.958062 9.81648 0.953712 9.7599 0.953712H6.24071C6.1823 0.953712 6.12754 0.958062 6.07278 0.970488C6.01802 0.98105 5.9657 0.997204 5.91459 1.02019C5.86166 1.0407 5.81116 1.06803 5.76492 1.10096C5.71868 1.13203 5.67608 1.16931 5.63532 1.21031C5.59455 1.25194 5.55805 1.29481 5.52763 1.34452C5.49538 1.38987 5.46922 1.44206 5.4467 1.4955C5.42663 1.54706 5.4102 1.60112 5.39986 1.65641C5.38769 1.71233 5.3816 1.77011 5.3816 1.8279V2.29947H5.38221Z" fill="#00008F"/>
<path fill-rule="evenodd" clip-rule="evenodd" d="M0.920898 5.93475H15.0804V22.53C15.0804 23.3383 14.4324 24 13.6402 24H2.36106C1.56949 24 0.921507 23.3383 0.921507 22.53V5.93475H0.920898ZM8.00064 8.14165C8.33041 8.14165 8.59995 8.41689 8.59995 8.75364V21.1817C8.59995 21.5191 8.33041 21.7937 8.00064 21.7937C7.67087 21.7937 7.40133 21.5185 7.40133 21.1817V8.75364C7.40133 8.41689 7.67087 8.14165 8.00064 8.14165ZM3.84138 8.14165C4.17115 8.14165 4.44069 8.41689 4.44069 8.75364V21.1817C4.44069 21.5191 4.17115 21.7937 3.84138 21.7937C3.51161 21.7937 3.24025 21.5185 3.24025 21.1817V8.75364C3.24025 8.41689 3.51161 8.14165 3.84138 8.14165ZM12.1599 8.14165C12.4897 8.14165 12.7592 8.41689 12.7592 8.75364V21.1817C12.7592 21.5191 12.4897 21.7937 12.1599 21.7937C11.8301 21.7937 11.5606 21.5185 11.5606 21.1817V8.75364C11.5606 8.41689 11.8301 8.14165 12.1599 8.14165Z" fill="#00008F"/>
</g>
<defs>
<clipPath id="clip0_192_2498">
<rect width="16" height="24" fill="white"/>
</clipPath>
</defs>
</svg>
