<svg width="19" height="15" viewBox="0 0 19 15" fill="none" xmlns="http://www.w3.org/2000/svg">
<path d="M2.06192 6.73811C2.6309 5.34107 3.61728 4.13276 4.89957 3.26201C6.18185 2.39125 7.70404 1.89608 9.27864 1.83749C10.2419 1.88066 11.195 2.04446 12.1133 2.32463L13.6597 0.977202C12.3427 0.338723 10.8861 0.00395983 9.40777 0C7.33236 0.0490645 5.32156 0.696222 3.6416 1.85579C1.96163 3.01537 0.691722 4.63266 0 6.49357C0.633872 8.08209 1.64866 9.5082 2.96375 10.6586L4.25297 9.55573C3.23875 8.8497 2.47455 7.86696 2.06192 6.73811Z" fill="#00008F"/>
<path d="M15.2062 2.2048L13.7889 3.55223C15.1463 4.4098 16.1837 5.65349 16.7526 7.10543C16.1768 8.48764 15.1851 9.67776 13.9014 10.5269C12.6178 11.376 11.0993 11.8465 9.53593 11.8794C8.22297 11.8583 6.93707 11.5211 5.79844 10.8993L4.51025 12.006C6.01639 12.9128 7.75007 13.4204 9.53183 13.4762C11.6072 13.4272 13.618 12.78 15.298 11.6204C16.978 10.4609 18.2479 8.84357 18.9396 6.98267C18.1956 5.08636 16.901 3.4296 15.2062 2.2048Z" fill="#00008F"/>
<path d="M9.53594 10.5359C10.4865 10.5162 11.3923 10.1485 12.0646 9.5094C12.7369 8.87027 13.1237 8.00908 13.1443 7.10543C13.1653 6.30729 12.8919 5.52732 12.3716 4.90063L7.2168 9.55574C7.50532 9.8694 7.86223 10.1196 8.26273 10.2888C8.66323 10.4581 9.09771 10.5424 9.53594 10.5359Z" fill="#00008F"/>
<path d="M5.67041 6.73812C5.68144 7.1561 5.76847 7.56912 5.92764 7.95889L10.8252 3.55222C10.3529 3.30211 9.81932 3.17538 9.27877 3.18492C8.32277 3.25118 7.42606 3.65031 6.76029 4.3059C6.09452 4.96149 5.70647 5.82749 5.67041 6.73812Z" fill="#00008F"/>
<path d="M3.7373 13.9673L17.9125 1.10287" stroke="#00008F" stroke-width="1.5" stroke-miterlimit="10" stroke-linecap="round"/>
</svg>
