<svg width="32" height="32" viewBox="0 0 32 32" fill="none" xmlns="http://www.w3.org/2000/svg">
<g id="Action/find_in_page_24px">
<path id="icon/action/find_in_page_24px" fill-rule="evenodd" clip-rule="evenodd" d="M18.6673 2.66663H8.00065C6.53398 2.66663 5.34732 3.86663 5.34732 5.33329L5.33398 26.6666C5.33398 28.1333 6.52065 29.3333 7.98732 29.3333H24.0007C25.4673 29.3333 26.6673 28.1333 26.6673 26.6666V10.6666L18.6673 2.66663ZM8.00065 5.33329H17.334L24.0007 12V23.44L21.5473 20.9866C23.254 18.4 22.974 14.8933 20.694 12.6133C19.4007 11.32 17.7073 10.6666 16.0007 10.6666C14.294 10.6666 12.6007 11.32 11.294 12.6133C8.69398 15.2133 8.69398 19.4266 11.294 22.0133C12.5873 23.3066 14.294 23.96 16.0007 23.96C17.2807 23.96 18.5607 23.5866 19.6673 22.8533L23.4673 26.6666H8.00065V5.33329ZM16.0007 21.3066C17.0673 21.3066 18.0673 20.88 18.814 20.1333C19.574 19.3866 19.9873 18.3866 19.9873 17.32C19.9873 16.2533 19.5607 15.2533 18.814 14.5066C18.0673 13.7466 17.0673 13.3333 16.0007 13.3333C14.934 13.3333 13.934 13.7466 13.1873 14.5066C12.4273 15.2533 12.014 16.2533 12.014 17.32C12.014 18.3866 12.4407 19.3866 13.1873 20.1333C13.934 20.8933 14.934 21.3066 16.0007 21.3066Z" fill="#00008F"/>
</g>
</svg>
